<svg xmlns="http://www.w3.org/2000/svg" viewBox="0 0 500 500"><g id="freepik--Floor--inject-62"><line x1="23.51" y1="461.15" x2="472.22" y2="461.15" style="fill:none;stroke:#263238;stroke-miterlimit:10"></line></g><g id="freepik--Device--inject-62"><rect x="158.04" y="21.07" width="194.04" height="411.91" rx="25.7" style="fill:#263238;stroke:#263238;stroke-miterlimit:10"></rect><path d="M345.32,49.73V404.32a22.25,22.25,0,0,1-22.25,22.25h-136a21.61,21.61,0,0,1-3-.21,22.25,22.25,0,0,1-19.23-22V49.73a22.26,22.26,0,0,1,22.26-22.25H191c12.23,0,24.49.23,36.71,0,0,.08-.08.23-.05.35,3.34-.52,8.54.92,11,3.33,3.84,3.84,8.33,9.09,14.19,9.7,6.13.63,11-4.33,15-8.27,4.48-4.43,10.46-5.1,16.52-5.1h38.76A22.25,22.25,0,0,1,345.32,49.73Z" style="fill:#7D61B5"></path><path d="M345.32,49.73V94.94c-19.45,23.43-66.81,53.6-120.66,81.77-29.15,15.26-47.93,29.64-59.86,41.06V108.51q2.52-3.57,5.46-7.29c23.56-29.73,80.7-48.8,121-73.74h31.79A22.25,22.25,0,0,1,345.32,49.73Z" style="fill:#fff;opacity:0.30000000000000004"></path><path d="M345.32,181.42V319.56c-19.45,23.43-66.81,53.6-120.66,81.77a311.72,311.72,0,0,0-40.63,25,22.25,22.25,0,0,1-19.23-22V333.13q2.52-3.57,5.46-7.29c33-41.67,132-62.41,158.19-107.71C335.48,206,341.28,192.17,345.32,181.42Z" style="fill:#fff;opacity:0.30000000000000004"></path><circle cx="253.91" cy="32.32" r="3.92" style="fill:#7d7d7d;stroke:#fff;stroke-miterlimit:10"></circle><path d="M352,139.57h0V88.3h0a3.51,3.51,0,0,1,3.51,3.51v44.24A3.52,3.52,0,0,1,352,139.57Z" style="fill:#263238;stroke:#263238;stroke-miterlimit:10"></path><path d="M352,183.75h0V158.17h0a3.51,3.51,0,0,1,3.51,3.51v18.56A3.51,3.51,0,0,1,352,183.75Z" style="fill:#263238;stroke:#263238;stroke-miterlimit:10"></path><rect x="178.68" y="245.58" width="156.21" height="22.74" rx="11.37" style="fill:#fff;stroke:#263238;stroke-miterlimit:10"></rect><circle cx="192.36" cy="307.56" r="12.9" transform="translate(-63.43 50.33) rotate(-12.82)" style="fill:#fff;stroke:#263238;stroke-miterlimit:10"></circle><circle cx="234.43" cy="307.56" r="12.9" transform="translate(-148.82 255.85) rotate(-45)" style="fill:#fff;stroke:#263238;stroke-miterlimit:10"></circle><circle cx="276.5" cy="307.56" r="12.9" transform="translate(-63.58 72.2) rotate(-13.36)" style="fill:#fff;stroke:#263238;stroke-miterlimit:10"></circle><circle cx="318.57" cy="307.56" r="12.9" transform="translate(-86.92 485.5) rotate(-67.69)" style="fill:#fff;stroke:#263238;stroke-miterlimit:10"></circle><circle cx="192.36" cy="364.42" r="12.9" transform="translate(-76.04 51.75) rotate(-12.82)" style="fill:#fff;stroke:#263238;stroke-miterlimit:10"></circle><circle cx="234.43" cy="364.42" r="12.9" transform="translate(-189.02 272.5) rotate(-45)" style="fill:#fff;stroke:#263238;stroke-miterlimit:10"></circle><circle cx="276.5" cy="364.42" r="12.9" transform="translate(-76.71 73.74) rotate(-13.36)" style="fill:#fff;stroke:#263238;stroke-miterlimit:10"></circle><circle cx="318.57" cy="364.42" r="12.9" transform="translate(-139.52 520.77) rotate(-67.69)" style="fill:#fff;stroke:#263238;stroke-miterlimit:10"></circle><circle cx="256.79" cy="137.26" r="49.08" style="fill:none;stroke:#fff;stroke-miterlimit:10"></circle><path d="M235.76,146.46V128.81a1.58,1.58,0,0,1-.59.45,6.67,6.67,0,0,1-1,.39l-1,.31a4.76,4.76,0,0,1-.56.16v-1.46a8,8,0,0,0,.82-.28,6,6,0,0,0,.94-.49,8.28,8.28,0,0,0,.92-.67,4.5,4.5,0,0,0,.79-.84h1.47v20.08Z" style="fill:#263238"></path><path d="M244.86,146.46V128.81a1.55,1.55,0,0,1-.6.45,6.13,6.13,0,0,1-1,.39l-1,.31a5.4,5.4,0,0,1-.56.16v-1.46c.23-.06.5-.16.82-.28a6,6,0,0,0,.94-.49,8.28,8.28,0,0,0,.92-.67,4.5,4.5,0,0,0,.79-.84h1.46v20.08Z" style="fill:#263238"></path><path d="M251.5,136v-2.66h1.94V136Zm0,8.42v-2.65h1.94v2.65Z" style="fill:#263238"></path><path d="M260.48,146.71a4.92,4.92,0,0,1-2.56-.6,3.48,3.48,0,0,1-1.45-1.69,6.85,6.85,0,0,1-.45-2.59v-.5h1.73v.42a6.24,6.24,0,0,0,.29,1.85,2.32,2.32,0,0,0,.85,1.2,2.72,2.72,0,0,0,1.59.42,2.91,2.91,0,0,0,1.6-.41,2.46,2.46,0,0,0,1-1.35,7.55,7.55,0,0,0,.33-2.45,6.08,6.08,0,0,0-.67-3,2.56,2.56,0,0,0-2.33-1.23h-.49V135h.49a2.71,2.71,0,0,0,2.31-.91,4.83,4.83,0,0,0,.69-2.91,5,5,0,0,0-.58-2.55,2.27,2.27,0,0,0-2.14-1,2.66,2.66,0,0,0-2.2.85,4.42,4.42,0,0,0-.73,2.64v.35H256V131a6.64,6.64,0,0,1,.45-2.57,3.43,3.43,0,0,1,1.5-1.67,5.34,5.34,0,0,1,2.68-.6,4.75,4.75,0,0,1,2.6.65,3.82,3.82,0,0,1,1.5,1.77,6.4,6.4,0,0,1,.49,2.59,5.77,5.77,0,0,1-.79,3.26,3.4,3.4,0,0,1-2.06,1.45,3.38,3.38,0,0,1,1.39.79,4.34,4.34,0,0,1,1.05,1.65,7.47,7.47,0,0,1,.41,2.64,8.85,8.85,0,0,1-.47,3,4,4,0,0,1-1.53,2A4.79,4.79,0,0,1,260.48,146.71Z" style="fill:#263238"></path><path d="M272.5,146.69a4.82,4.82,0,0,1-2.59-.62,3.54,3.54,0,0,1-1.42-1.84,8.51,8.51,0,0,1-.45-2.95h1.81a8.73,8.73,0,0,0,.23,2.11,2.34,2.34,0,0,0,2.5,1.86,2.32,2.32,0,0,0,1.73-.6,3.23,3.23,0,0,0,.82-1.73,14.85,14.85,0,0,0,.22-2.8,12.75,12.75,0,0,0-.26-2.93,2.73,2.73,0,0,0-.86-1.57,2.51,2.51,0,0,0-1.63-.49,2.68,2.68,0,0,0-1.44.42,3.87,3.87,0,0,0-1.16,1.24h-1.51V126.38h7.8l0,1.71H270.1l-.1,7a3.72,3.72,0,0,1,1.2-.94,3.92,3.92,0,0,1,1.87-.4,3.67,3.67,0,0,1,2.39.74,4.14,4.14,0,0,1,1.31,2.12,12.27,12.27,0,0,1,.39,3.31,15.65,15.65,0,0,1-.24,2.9,6.07,6.07,0,0,1-.81,2.13,3.65,3.65,0,0,1-1.44,1.32A4.74,4.74,0,0,1,272.5,146.69Z" style="fill:#263238"></path><rect x="310.04" y="35.77" width="17" height="9.32" style="fill:none;stroke:#263238;stroke-linecap:round;stroke-linejoin:round;stroke-width:0.821067px"></rect><rect x="310.04" y="35.77" width="13.26" height="9.32" style="fill:#263238;stroke:#263238;stroke-linecap:round;stroke-linejoin:round;stroke-width:0.725073px"></rect><rect x="327" y="38.37" width="2.39" height="4.11" style="fill:#263238;stroke:#263238;stroke-linecap:round;stroke-linejoin:round;stroke-width:0.725073px"></rect><rect x="176.61" y="38.66" width="3.12" height="5.34" style="fill:#263238;stroke:#263238;stroke-linecap:round;stroke-linejoin:round;stroke-width:0.8830859999999999px"></rect><rect x="181.51" y="36.78" width="3.12" height="7.22" style="fill:#263238;stroke:#263238;stroke-linecap:round;stroke-linejoin:round;stroke-width:0.8830859999999999px"></rect><rect x="186.41" y="34.56" width="3.12" height="9.44" style="fill:#263238;stroke:#263238;stroke-linecap:round;stroke-linejoin:round;stroke-width:0.8830859999999999px"></rect><path d="M317.39,259.46h0a2.27,2.27,0,0,1-2.27-2.27V250a2.27,2.27,0,0,1,2.27-2.27h0a2.27,2.27,0,0,1,2.27,2.27v7.2A2.27,2.27,0,0,1,317.39,259.46Z" style="fill:#263238"></path><path d="M317.4,261.09a4,4,0,0,1-4-4V253.7a.41.41,0,0,1,.42-.41.41.41,0,0,1,.41.41v3.38a3.19,3.19,0,0,0,6.37,0V253.7a.41.41,0,0,1,.41-.41.41.41,0,0,1,.42.41v3.38A4,4,0,0,1,317.4,261.09Z" style="fill:#263238"></path><path d="M317.4,265.41A.41.41,0,0,1,317,265v-4.32a.42.42,0,1,1,.83,0V265A.41.41,0,0,1,317.4,265.41Z" style="fill:#263238"></path><path d="M320.17,265.63h-5.53a.41.41,0,0,1-.42-.41.42.42,0,0,1,.42-.42h5.53a.42.42,0,0,1,.42.42A.41.41,0,0,1,320.17,265.63Z" style="fill:#263238"></path><path d="M159.66,314.93s.44,2.26.87,2.37,4.65-.11,4.75-1.19-2.16-1.73-2.16-1.73Z" style="fill:#fff;stroke:#263238;stroke-linejoin:round"></path></g><g id="freepik--character-1--inject-62"><path d="M197.53,451s-2.52,4.09-3.15,4.72-3.93,2.52-4.4,3.3-.32,1.58,1.1,1.74a75.8,75.8,0,0,0,11.8-1c1.42-.47,8.18-7.4,8.34-7.87s-3.36-5.55-3.36-5.55Z" style="fill:#fff;stroke:#263238;stroke-linejoin:round"></path><path d="M151.63,342.17s-9.91-.95-10.48-1.14-2.48-4.19-3-4.48a36.68,36.68,0,0,1-3.43-1.52,8.18,8.18,0,0,1-2.1-2.57c-.38-.57-1.61-.38-1.42.47a8.3,8.3,0,0,0,1.33,2.29l-1.91,1.33s3.43,8.76,4.67,8.86,5.81.09,5.81.09L153.34,351Z" style="fill:#fff;stroke:#263238;stroke-linejoin:round"></path><path d="M125.5,329.28,134,343.79l2.28-.38-8.37-14.59a.33.33,0,0,0-.3-.16l-1.86.14A.33.33,0,0,0,125.5,329.28Z" style="fill:#fff;stroke:#263238;stroke-linejoin:round"></path><path d="M131.34,340.84s.38,1.71.67,1.9,3.43-.85,3.52-1.71-.86-1.43-.86-1.43S132.2,341,131.34,340.84Z" style="fill:#fff;stroke:#263238;stroke-linejoin:round"></path><path d="M132,342.74s.76,1.53,1.43,1.53,3.14-.57,2.95-1.62a2.94,2.94,0,0,0-.86-1.62Z" style="fill:#fff;stroke:#263238;stroke-linejoin:round"></path><path d="M142.13,276.93s-3.78,1.73-3.78,2.51v.79s.63,6.14.94,7.24,1.74,4.09,1.74,4.88-1.26,3.14-1.11,3.62,3,1.1,3,1.1,2.37,6.13,3.31,6.13,5-2,5-2l3.78,7.55.47,2.83,9.6-7.86L159.44,295s3.93-5,2.83-10.86-1.42-9.44-7.87-9.91A25.17,25.17,0,0,0,142.13,276.93Z" style="fill:#fff;stroke:#263238;stroke-linejoin:round"></path><path d="M154.4,274.25a25.17,25.17,0,0,0-12.27,2.68s-3.78,1.73-3.78,2.51v.79s.07.7.18,1.67l.13.06,7.4-3.62s-2.05,3.31-.63,4.09a31.35,31.35,0,0,0,4.88,1.73s.94,4.41,1.57,3.78-.31-1.26,1.42-2.05,3.93,1.42,3.93,3.47-2.67,2.83-2.67,2.83l4.88,2.83s3.93-5,2.83-10.86S160.85,274.72,154.4,274.25Z" style="fill:#263238;stroke:#263238;stroke-linejoin:round"></path><path d="M143.23,291.25a4.25,4.25,0,0,0,2.52-.79" style="fill:none;stroke:#263238;stroke-linejoin:round"></path><path d="M142.28,288.41a3.06,3.06,0,0,1,3.15-.15" style="fill:none;stroke:#263238;stroke-linejoin:round"></path><path d="M164.47,302.57S156,308.08,153,313.12s-4.25,8.34-3.94,11.33S151.57,352,151.57,352s-1.57,11.48-1.88,12.11-1.42,4.25-1.42,4.25,3,2.2,13.06,3.3,20.46-1.57,20.46-1.57l-3.15-16.68s.15-31.63-1.11-35.41-3.3-8.49-6.13-11A33.16,33.16,0,0,0,164.47,302.57Z" style="fill:#263238;stroke:#263238;stroke-linejoin:round"></path><path d="M166.68,303.78s-6,5.2-6.94,11.35,0,10.71,2.37,14.34a34,34,0,0,0,6,6.61L175,344l-1.57,12.92s7.56,6.78,11.18,6.14,7.09-1.1,8.83-3a12.49,12.49,0,0,0,3.46-8.67,39.33,39.33,0,0,0-1.26-7.56s3.15-.31,1.73-4.41-8.19-14.65-8.82-15.6-8.35-6.46-8.35-6.46L173,308.67S170.46,303.15,166.68,303.78Z" style="fill:#fff;stroke:#263238;stroke-linejoin:round"></path><path d="M148.27,368.35s-8.34,19.83-9.12,30.21-4.72,37.61-4.72,37.61L130,446.56l10.7,6,2.05.94s4.56-17.94,5.35-20.3,7.71-29.42,7.71-29.42l3.77-11.18s13.85,24.71,15.42,26.59,21.88,28,22.19,28.8a12.38,12.38,0,0,1,.32,3l6-2.52,4.35-2.09-3.41-11.6s-16.68-21.56-16.84-22.34S179.74,389,179.74,389s.32-5.19.47-6.92,2.36-11,1.58-12l-.79-.95-30.06-1.25Z" style="fill:#fff;stroke:#263238;stroke-linejoin:round"></path><line x1="159.6" y1="392.58" x2="156.45" y2="384.56" style="fill:none;stroke:#263238;stroke-linejoin:round"></line><path d="M130,446.56l-3.3,2.2s-9.6-1.1-10.39-.16-.15,2.68,3.15,4.73,8.66,4.4,10.39,4.72,9.12,2.51,10.54,2.2,2.36-6.77,2.36-6.77Z" style="fill:#fff;stroke:#263238;stroke-linejoin:round"></path><path d="M178.32,327.12s2.38,12.11,2.38,14.63,11,3.47,13.4,3.31" style="fill:none;stroke:#263238;stroke-linejoin:round"></path><path d="M170.14,307c2.06,2,6.61,4.88,7.39,11a80.86,80.86,0,0,1,.79,9.13L165,328.54s-2.21-7.87-2.84-11.17,4.25-9.29,4.25-9.29S169,305.92,170.14,307Z" style="fill:#263238;stroke:#263238;stroke-linejoin:round"></path><path d="M165,328.54l4.25,13.37s-2.36,6.45-3.15,9.6-2.36,14.95-2.36,14.95L162,370.4l7.24,7.23a26.9,26.9,0,0,0,.63-5.35c-.16-1.57-.47-4.72-.47-4.72s9.75-21.4,10.22-22.82-1.26-17.62-1.26-17.62Z" style="fill:#fff;stroke:#263238;stroke-linejoin:round"></path></g></svg>